<mxfile host="app.diagrams.net" modified="2021-09-13T07:21:09.976Z" agent="5.0 (Macintosh; Intel Mac OS X 10_15_7) AppleWebKit/537.36 (KHTML, like Gecko) Chrome/93.0.4577.63 Safari/537.36" etag="svo5wJtLlnFwz2nwgrQS" version="15.2.1" type="github">
  <diagram id="g2f6WKCkMucgUdiZLQqU" name="Page-1">
    <mxGraphModel dx="946" dy="447" grid="1" gridSize="10" guides="1" tooltips="1" connect="1" arrows="1" fold="1" page="1" pageScale="1" pageWidth="827" pageHeight="1169" math="0" shadow="0">
      <root>
        <mxCell id="0" />
        <mxCell id="1" parent="0" />
        <mxCell id="wTMKEH6NHDidl25fFrwc-1" value="UMS Service" style="ellipse;whiteSpace=wrap;html=1;" vertex="1" parent="1">
          <mxGeometry x="340" y="250" width="120" height="80" as="geometry" />
        </mxCell>
        <mxCell id="wTMKEH6NHDidl25fFrwc-2" value="Participant FPAs" style="rounded=1;whiteSpace=wrap;html=1;" vertex="1" parent="1">
          <mxGeometry x="100" y="190" width="120" height="60" as="geometry" />
        </mxCell>
        <mxCell id="wTMKEH6NHDidl25fFrwc-3" value="UMS FPA UI" style="rounded=1;whiteSpace=wrap;html=1;" vertex="1" parent="1">
          <mxGeometry x="100" y="330" width="120" height="60" as="geometry" />
        </mxCell>
        <mxCell id="wTMKEH6NHDidl25fFrwc-5" value="Participant Service" style="rounded=1;whiteSpace=wrap;html=1;fillColor=#f8cecc;strokeColor=#b85450;" vertex="1" parent="1">
          <mxGeometry x="550" y="200" width="120" height="60" as="geometry" />
        </mxCell>
        <mxCell id="wTMKEH6NHDidl25fFrwc-6" value="AAA Service" style="rounded=1;whiteSpace=wrap;html=1;fillColor=#f8cecc;strokeColor=#b85450;" vertex="1" parent="1">
          <mxGeometry x="550" y="330" width="120" height="60" as="geometry" />
        </mxCell>
        <mxCell id="wTMKEH6NHDidl25fFrwc-7" value="" style="endArrow=classic;html=1;exitX=1;exitY=0.5;exitDx=0;exitDy=0;entryX=0;entryY=0;entryDx=0;entryDy=0;" edge="1" parent="1" source="wTMKEH6NHDidl25fFrwc-2" target="wTMKEH6NHDidl25fFrwc-1">
          <mxGeometry width="50" height="50" relative="1" as="geometry">
            <mxPoint x="390" y="280" as="sourcePoint" />
            <mxPoint x="440" y="230" as="targetPoint" />
          </mxGeometry>
        </mxCell>
        <mxCell id="wTMKEH6NHDidl25fFrwc-8" value="" style="endArrow=classic;html=1;exitX=1;exitY=0.5;exitDx=0;exitDy=0;entryX=0;entryY=1;entryDx=0;entryDy=0;" edge="1" parent="1" source="wTMKEH6NHDidl25fFrwc-3" target="wTMKEH6NHDidl25fFrwc-1">
          <mxGeometry width="50" height="50" relative="1" as="geometry">
            <mxPoint x="260" y="380" as="sourcePoint" />
            <mxPoint x="310" y="330" as="targetPoint" />
          </mxGeometry>
        </mxCell>
        <mxCell id="wTMKEH6NHDidl25fFrwc-9" value="" style="endArrow=classic;html=1;entryX=0;entryY=0.5;entryDx=0;entryDy=0;" edge="1" parent="1" source="wTMKEH6NHDidl25fFrwc-1" target="wTMKEH6NHDidl25fFrwc-5">
          <mxGeometry width="50" height="50" relative="1" as="geometry">
            <mxPoint x="460" y="270" as="sourcePoint" />
            <mxPoint x="510" y="220" as="targetPoint" />
          </mxGeometry>
        </mxCell>
        <mxCell id="wTMKEH6NHDidl25fFrwc-10" value="" style="endArrow=classic;html=1;exitX=1;exitY=1;exitDx=0;exitDy=0;" edge="1" parent="1" source="wTMKEH6NHDidl25fFrwc-1">
          <mxGeometry width="50" height="50" relative="1" as="geometry">
            <mxPoint x="420" y="380" as="sourcePoint" />
            <mxPoint x="550" y="360" as="targetPoint" />
          </mxGeometry>
        </mxCell>
        <mxCell id="wTMKEH6NHDidl25fFrwc-15" value="Create/Update &lt;br&gt;User Participant" style="text;html=1;align=center;verticalAlign=middle;resizable=0;points=[];autosize=1;strokeColor=none;fillColor=none;" vertex="1" parent="1">
          <mxGeometry x="430" y="215" width="100" height="30" as="geometry" />
        </mxCell>
        <mxCell id="wTMKEH6NHDidl25fFrwc-16" value="Create roles, &lt;br&gt;policies, &lt;br&gt;permissions" style="text;html=1;align=center;verticalAlign=middle;resizable=0;points=[];autosize=1;strokeColor=none;fillColor=none;" vertex="1" parent="1">
          <mxGeometry x="470" y="295" width="80" height="50" as="geometry" />
        </mxCell>
        <mxCell id="wTMKEH6NHDidl25fFrwc-18" value="Onboard Users &amp;amp;&lt;br&gt;Manage Org, &lt;br&gt;Function, &lt;br&gt;Designations" style="text;html=1;align=center;verticalAlign=middle;resizable=0;points=[];autosize=1;strokeColor=none;fillColor=none;" vertex="1" parent="1">
          <mxGeometry x="225" y="290" width="110" height="60" as="geometry" />
        </mxCell>
        <mxCell id="wTMKEH6NHDidl25fFrwc-19" value="Define resources &amp;amp; scopes" style="text;html=1;align=center;verticalAlign=middle;resizable=0;points=[];autosize=1;strokeColor=none;fillColor=none;" vertex="1" parent="1">
          <mxGeometry x="225" y="220" width="160" height="20" as="geometry" />
        </mxCell>
      </root>
    </mxGraphModel>
  </diagram>
</mxfile>
